<?xml version="1.0" encoding="iso-8859-1"?>
<!-- Generator: Adobe Illustrator 19.0.0, SVG Export Plug-In . SVG Version: 6.00 Build 0)  -->
<svg version="1.1" id="Layer_1" xmlns="http://www.w3.org/2000/svg" xmlns:xlink="http://www.w3.org/1999/xlink" x="0px" y="0px"
	 viewBox="0 0 512 512" style="enable-background:new 0 0 512 512;" xml:space="preserve">
<circle style="fill:#71E2EF;" cx="256" cy="256" r="256"/>
<path style="fill:#38C6D9;" d="M512,256c0-17.468-1.757-34.526-5.091-51.014L406.733,104.81l-70.646,178.267L313.32,260.31
	l-151.466,71.62l40.76,40.76l-97.637,50.745l77.972,77.972C206.1,508.287,230.615,512,256,512C397.384,512,512,397.384,512,256z"/>
<rect x="172.787" y="291.995" style="fill:#366695;" width="166.443" height="33.623"/>
<g>
	<rect x="255.431" y="291.995" style="fill:#273B7A;" width="83.792" height="33.623"/>
	<path style="fill:#273B7A;" d="M113.131,294.945h285.737c5.356,0,9.697-4.341,9.697-9.697v-174.78c0-5.356-4.341-9.697-9.697-9.697
		H113.131c-5.356,0-9.697,4.341-9.697,9.697v174.78C103.434,290.602,107.775,294.945,113.131,294.945z"/>
</g>
<path style="fill:#121149;" d="M398.869,100.771H255.426v194.174h143.443c5.356,0,9.697-4.341,9.697-9.697v-174.78
	C408.566,105.112,404.223,100.771,398.869,100.771z"/>
<path style="fill:#FFFFFF;" d="M121.022,284.512h269.957c2.982,0,5.399-2.417,5.399-5.399V116.602c0-2.982-2.417-5.399-5.399-5.399
	H121.022c-2.982,0-5.399,2.417-5.399,5.399v162.511C115.622,282.095,118.039,284.512,121.022,284.512z"/>
<path style="fill:#D0D1D3;" d="M390.978,111.204H255.426v173.308h135.552c2.982,0,5.399-2.417,5.399-5.399V116.602
	C396.378,113.621,393.961,111.204,390.978,111.204z"/>
<rect x="161.857" y="318.474" style="fill:#263A7A;" width="188.285" height="13.45"/>
<rect x="255.431" y="318.474" style="fill:#121149;" width="94.72" height="13.45"/>
<path style="fill:#273B7A;" d="M407.021,423.434H104.979c-3.71,0-6.716-3.007-6.716-6.716V351.28c0-3.71,3.006-6.716,6.716-6.716
	h302.044c3.71,0,6.716,3.007,6.716,6.716v65.438C413.737,420.428,410.731,423.434,407.021,423.434z"/>
<path style="fill:#121149;" d="M407.021,344.566H255.426v78.869h151.595c3.71,0,6.716-3.007,6.716-6.716V351.28
	C413.737,347.572,410.731,344.566,407.021,344.566z"/>
<g>
	<rect x="121.966" y="358.572" style="fill:#FFFFFF;" width="12.067" height="12.067"/>
	<rect x="150.411" y="358.572" style="fill:#FFFFFF;" width="12.067" height="12.067"/>
	<rect x="178.855" y="358.572" style="fill:#FFFFFF;" width="12.067" height="12.067"/>
	<rect x="207.3" y="358.572" style="fill:#FFFFFF;" width="12.067" height="12.067"/>
	<rect x="235.744" y="358.572" style="fill:#FFFFFF;" width="12.067" height="12.067"/>
</g>
<g>
	<rect x="264.189" y="358.572" style="fill:#D0D1D3;" width="12.067" height="12.067"/>
	<rect x="292.633" y="358.572" style="fill:#D0D1D3;" width="12.067" height="12.067"/>
	<rect x="321.077" y="358.572" style="fill:#D0D1D3;" width="12.067" height="12.067"/>
	<rect x="349.522" y="358.572" style="fill:#D0D1D3;" width="12.067" height="12.067"/>
	<rect x="377.966" y="358.572" style="fill:#D0D1D3;" width="12.067" height="12.067"/>
</g>
<g>
	<rect x="121.966" y="398.222" style="fill:#FFFFFF;" width="12.067" height="12.067"/>
	<rect x="150.411" y="398.222" style="fill:#FFFFFF;" width="12.067" height="12.067"/>
	<rect x="178.855" y="398.222" style="fill:#FFFFFF;" width="12.067" height="12.067"/>
	<rect x="207.3" y="398.222" style="fill:#FFFFFF;" width="97.401" height="12.067"/>
</g>
<g>
	<rect x="255.431" y="398.222" style="fill:#D0D1D3;" width="49.274" height="12.067"/>
	<rect x="321.077" y="398.222" style="fill:#D0D1D3;" width="12.067" height="12.067"/>
	<rect x="349.522" y="398.222" style="fill:#D0D1D3;" width="12.067" height="12.067"/>
	<rect x="377.966" y="398.222" style="fill:#D0D1D3;" width="12.067" height="12.067"/>
</g>
<g>
	<rect x="138.343" y="377.535" style="fill:#FFFFFF;" width="12.067" height="12.067"/>
	<rect x="166.788" y="377.535" style="fill:#FFFFFF;" width="12.067" height="12.067"/>
	<rect x="195.232" y="377.535" style="fill:#FFFFFF;" width="12.067" height="12.067"/>
	<rect x="223.677" y="377.535" style="fill:#FFFFFF;" width="12.067" height="12.067"/>
	<rect x="252.121" y="377.535" style="fill:#FFFFFF;" width="12.067" height="12.067"/>
</g>
<g>
	<rect x="255.431" y="377.535" style="fill:#D0D1D3;" width="8.763" height="12.067"/>
	<rect x="280.566" y="377.535" style="fill:#D0D1D3;" width="12.067" height="12.067"/>
	<rect x="309.01" y="377.535" style="fill:#D0D1D3;" width="12.067" height="12.067"/>
	<rect x="337.455" y="377.535" style="fill:#D0D1D3;" width="12.067" height="12.067"/>
	<rect x="365.899" y="377.535" style="fill:#D0D1D3;" width="12.067" height="12.067"/>
</g>
<g>
</g>
<g>
</g>
<g>
</g>
<g>
</g>
<g>
</g>
<g>
</g>
<g>
</g>
<g>
</g>
<g>
</g>
<g>
</g>
<g>
</g>
<g>
</g>
<g>
</g>
<g>
</g>
<g>
</g>
</svg>
